<svg xmlns="http://www.w3.org/2000/svg" viewBox="0 0 800 400">
  <!-- Definitions for arrow markers -->
  <defs>
    <marker id="arrowhead" markerWidth="10" markerHeight="7" refX="10" refY="3.5" orient="auto">
      <polygon points="0 0, 10 3.5, 0 7" fill="#333" />
    </marker>
  </defs>

  <!-- AWS Cloud Boundary -->
  <rect x="200" y="50" width="550" height="300" rx="10" ry="10" fill="#f8f9fa" stroke="#e9ecef" stroke-width="2" />
  <text x="220" y="80" font-family="sans-serif" font-size="14" fill="#6c757d">AWS Cloud</text>

  <!-- Client -->
  <rect x="20" y="175" width="100" height="50" rx="5" ry="5" fill="#e3f2fd" stroke="#2196f3" stroke-width="2" />
  <text x="70" y="205" font-family="sans-serif" font-size="14" fill="#0d47a1" text-anchor="middle">Client</text>

  <!-- API Gateway -->
  <rect x="250" y="150" width="120" height="100" rx="5" ry="5" fill="#fff3e0" stroke="#ff9800" stroke-width="2" />
  <text x="310" y="180" font-family="sans-serif" font-size="14" fill="#e65100" text-anchor="middle">API Gateway</text>
  <text x="310" y="200" font-family="sans-serif" font-size="10" fill="#e65100" text-anchor="middle">(HTTP API)</text>
  <text x="310" y="220" font-family="sans-serif" font-size="10" fill="#555" text-anchor="middle">GET /random</text>
  <text x="310" y="235" font-family="sans-serif" font-size="10" fill="#555" text-anchor="middle">GET /list</text>

  <!-- Lambda Function -->
  <rect x="450" y="125" width="250" height="150" rx="5" ry="5" fill="#fff3e0" stroke="#ff9800" stroke-width="2" />
  <text x="575" y="150" font-family="sans-serif" font-size="14" fill="#e65100" text-anchor="middle">AWS Lambda</text>
  
  <!-- Go Binary -->
  <rect x="470" y="170" width="100" height="80" rx="3" ry="3" fill="#e8f5e9" stroke="#4caf50" stroke-width="2" />
  <text x="520" y="215" font-family="sans-serif" font-size="12" fill="#1b5e20" text-anchor="middle">Go Binary</text>

  <!-- CSV Data -->
  <rect x="590" y="170" width="90" height="80" rx="3" ry="3" fill="#f3e5f5" stroke="#9c27b0" stroke-width="2" />
  <text x="635" y="205" font-family="sans-serif" font-size="12" fill="#4a148c" text-anchor="middle">CSV Data</text>
  <text x="635" y="225" font-family="sans-serif" font-size="10" fill="#4a148c" text-anchor="middle">(Embedded)</text>

  <!-- Connections -->
  
  <!-- Client to API Gateway -->
  <line x1="120" y1="200" x2="240" y2="200" stroke="#333" stroke-width="2" marker-end="url(#arrowhead)" />
  
  <!-- API Gateway to Lambda -->
  <line x1="370" y1="200" x2="440" y2="200" stroke="#333" stroke-width="2" marker-end="url(#arrowhead)" />
  <text x="405" y="190" font-family="sans-serif" font-size="10" fill="#555" text-anchor="middle">Invoke</text>

  <!-- Go Binary to CSV -->
  <line x1="570" y1="210" x2="580" y2="210" stroke="#333" stroke-width="2" marker-end="url(#arrowhead)" />
  <text x="580" y="200" font-family="sans-serif" font-size="9" fill="#555" text-anchor="middle">Read</text>

</svg>
