<svg xmlns="http://www.w3.org/2000/svg" viewBox="0 0 800 400">
  <!-- Definitions for arrow markers -->
  <defs>
    <marker id="arrowhead" markerWidth="10" markerHeight="7" refX="10" refY="3.5" orient="auto">
      <polygon points="0 0, 10 3.5, 0 7" fill="#333" />
    </marker>
  </defs>

  <!-- AWS Cloud Boundary -->
  <rect x="140" y="50" width="640" height="300" rx="10" ry="10" fill="#f8f9fa" stroke="#e9ecef" stroke-width="2" />
  <text x="160" y="80" font-family="sans-serif" font-size="14" fill="#6c757d">AWS Cloud</text>

  <!-- Client -->
  <rect x="20" y="175" width="80" height="50" rx="5" ry="5" fill="#e3f2fd" stroke="#2196f3" stroke-width="2" />
  <text x="60" y="205" font-family="sans-serif" font-size="14" fill="#0d47a1" text-anchor="middle">Client</text>

  <!-- CloudFront -->
  <rect x="170" y="150" width="100" height="100" rx="5" ry="5" fill="#fce4ec" stroke="#e91e63" stroke-width="2" />
  <text x="220" y="180" font-family="sans-serif" font-size="14" fill="#880e4f" text-anchor="middle">CloudFront</text>
  <text x="220" y="200" font-family="sans-serif" font-size="10" fill="#880e4f" text-anchor="middle">(Caching: Off)</text>

  <!-- API Gateway -->
  <rect x="320" y="150" width="110" height="100" rx="5" ry="5" fill="#fff3e0" stroke="#ff9800" stroke-width="2" />
  <text x="375" y="180" font-family="sans-serif" font-size="14" fill="#e65100" text-anchor="middle">API Gateway</text>
  <text x="375" y="200" font-family="sans-serif" font-size="10" fill="#e65100" text-anchor="middle">(HTTP API)</text>
  <text x="375" y="220" font-family="sans-serif" font-size="10" fill="#555" text-anchor="middle">GET /random</text>
  <text x="375" y="235" font-family="sans-serif" font-size="10" fill="#555" text-anchor="middle">GET /list</text>

  <!-- Lambda Function -->
  <rect x="480" y="125" width="250" height="150" rx="5" ry="5" fill="#fff3e0" stroke="#ff9800" stroke-width="2" />
  <text x="605" y="150" font-family="sans-serif" font-size="14" fill="#e65100" text-anchor="middle">AWS Lambda</text>
  
  <!-- Go Binary -->
  <rect x="500" y="170" width="100" height="80" rx="3" ry="3" fill="#e8f5e9" stroke="#4caf50" stroke-width="2" />
  <text x="550" y="215" font-family="sans-serif" font-size="12" fill="#1b5e20" text-anchor="middle">Go Binary</text>

  <!-- CSV Data -->
  <rect x="620" y="170" width="90" height="80" rx="3" ry="3" fill="#f3e5f5" stroke="#9c27b0" stroke-width="2" />
  <text x="665" y="205" font-family="sans-serif" font-size="12" fill="#4a148c" text-anchor="middle">CSV Data</text>
  <text x="665" y="225" font-family="sans-serif" font-size="10" fill="#4a148c" text-anchor="middle">(Embedded)</text>

  <!-- Connections -->
  
  <!-- Client to CloudFront -->
  <line x1="100" y1="200" x2="160" y2="200" stroke="#333" stroke-width="2" marker-end="url(#arrowhead)" />
  
  <!-- CloudFront to API Gateway -->
  <line x1="270" y1="200" x2="310" y2="200" stroke="#333" stroke-width="2" marker-end="url(#arrowhead)" />

  <!-- API Gateway to Lambda -->
  <line x1="430" y1="200" x2="470" y2="200" stroke="#333" stroke-width="2" marker-end="url(#arrowhead)" />
  <text x="450" y="190" font-family="sans-serif" font-size="10" fill="#555" text-anchor="middle">Invoke</text>

  <!-- Go Binary to CSV -->
  <line x1="600" y1="210" x2="610" y2="210" stroke="#333" stroke-width="2" marker-end="url(#arrowhead)" />
  <text x="610" y="200" font-family="sans-serif" font-size="9" fill="#555" text-anchor="middle">Read</text>

</svg>

